<svg xmlns="http://www.w3.org/2000/svg" xmlns:xlink="http://www.w3.org/1999/xlink" width="461" height="481" viewBox="0 0 461 481">
  <defs>
    <clipPath id="clip-path">
      <rect id="Rectangle_147" data-name="Rectangle 147" width="461" height="481" transform="translate(0 7907)" fill="#f9f9f9"/>
    </clipPath>
    <linearGradient id="linear-gradient" y1="0.5" x2="1" y2="0.5" gradientUnits="objectBoundingBox">
      <stop offset="0" stop-color="#eedfff"/>
      <stop offset="1" stop-color="#d2d2ff"/>
    </linearGradient>
  </defs>
  <g id="footer-bg" transform="translate(0 -7907)" clip-path="url(#clip-path)">
    <path id="Path_4030" data-name="Path 4030" d="M1011.144,920.99H888.185V711.072H1098.1V837.507L1078.9,836.9c-.537-.021-1.078-.042-1.623-.042a66.209,66.209,0,0,0-66.132,66.132Zm-86.961-36h52.55a102.384,102.384,0,0,1,85.375-83.006V747.071H924.183Zm153.093-33.029a51.026,51.026,0,1,0,51.028,51.028A51.027,51.027,0,0,0,1077.276,851.963ZM1098.1,677.906H888.185V467.988h122.959v18a66.206,66.206,0,0,0,66.132,66.133c.574,0,1.144-.021,1.714-.046l19.114-.657ZM924.183,641.912h137.926V587a102.388,102.388,0,0,1-85.375-83.009h-52.55ZM1128.3,485.987a51.026,51.026,0,1,0-51.028,51.028A51.025,51.025,0,0,0,1128.3,485.987ZM856.313,677.906H646.395V551.417l19.114.657c.574.025,1.139.046,1.714.046a66.206,66.206,0,0,0,66.132-66.133v-18H856.313ZM682.392,641.912H820.315V503.986H767.764A102.378,102.378,0,0,1,682.392,587Zm-15.17-104.9a51.026,51.026,0,1,0-51.028-51.028A51.031,51.031,0,0,0,667.222,537.015ZM856.313,920.99H733.354v-18a66.209,66.209,0,0,0-66.132-66.132c-.546,0-1.086.02-1.622.042l-19.205.607V711.072H856.313Zm-88.549-36h52.551V747.071H682.392v54.916A102.374,102.374,0,0,1,767.764,884.992Zm-151.57,18a51.028,51.028,0,1,0,51.028-51.028A51.028,51.028,0,0,0,616.193,902.991Z" transform="translate(-1029.806 8380.39) rotate(-43)" opacity="0.05" fill="url(#linear-gradient)"/>
  </g>
</svg>
