<svg xmlns="http://www.w3.org/2000/svg" xmlns:xlink="http://www.w3.org/1999/xlink" width="728" height="1080" viewBox="0 0 728 1080"><defs><clipPath id="a"><rect width="728" height="1080" transform="translate(1192)" fill="#fff" stroke="#707070" stroke-width="1"/></clipPath><linearGradient id="b" y1="0.5" x2="1" y2="0.5" gradientUnits="objectBoundingBox"><stop offset="0" stop-color="#854fbf"/><stop offset="1" stop-color="#154072"/></linearGradient></defs><g transform="translate(-1192)" clip-path="url(#a)"><path d="M1241.494,1204.46H1046.821V872.109h332.351v200.177l-30.406-.962c-.85-.034-1.706-.066-2.569-.066a104.824,104.824,0,0,0-104.7,104.7Zm-137.68-56.993h83.2a162.1,162.1,0,0,1,135.17-131.418V929.1h-218.37Zm242.382-52.293a80.786,80.786,0,1,0,80.79,80.789A80.787,80.787,0,0,0,1346.2,1095.174ZM1379.172,819.6H1046.821V487.25h194.673v28.5a104.82,104.82,0,0,0,104.7,104.7c.909,0,1.811-.033,2.713-.073l30.262-1.04Zm-275.358-56.987h218.37V675.666a162.1,162.1,0,0,1-135.17-131.423h-83.2Zm323.172-246.866a80.786,80.786,0,1,0-80.79,80.79A80.784,80.784,0,0,0,1426.986,515.746ZM996.359,819.6H664.009V619.337l30.261,1.04c.909.04,1.8.073,2.713.073a104.82,104.82,0,0,0,104.7-104.7v-28.5H996.359ZM721,762.612H939.366V544.243h-83.2A162.089,162.089,0,0,1,721,675.666ZM696.983,596.536a80.786,80.786,0,1,0-80.79-80.79A80.794,80.794,0,0,0,696.983,596.536ZM996.359,1204.46H801.686v-28.5a104.824,104.824,0,0,0-104.7-104.7c-.865,0-1.72.032-2.568.066l-30.406.962V872.109h332.35Zm-140.194-56.993h83.2V929.1H721v86.945A162.083,162.083,0,0,1,856.165,1147.466Zm-239.972,28.5a80.789,80.789,0,1,0,80.79-80.789A80.789,80.789,0,0,0,616.193,1175.963Z" transform="translate(352.312 618.104) rotate(-43)" opacity="0.3" fill="url(#b)"/></g></svg>