<svg xmlns="http://www.w3.org/2000/svg" xmlns:xlink="http://www.w3.org/1999/xlink" width="447.262" height="447.261" viewBox="0 0 447.262 447.261"><defs><linearGradient id="a" x1="0.5" x2="0.5" y2="1" gradientUnits="objectBoundingBox"><stop offset="0" stop-color="#854fbf"/><stop offset="1" stop-color="#154072"/></linearGradient></defs><path d="M348.756,300.646v126.7h-50.1v-126.7Zm-50.1-74.256v50.1h50.1v-50.1ZM276.6,350.724v-50.09H152.928c12.179-83.855,84.536-148.476,171.714-148.476,70.4,0,131.132,42.149,158.313,102.535l46.266-19.283c-34.763-78.47-113.376-133.356-204.578-133.356-123.31,0-223.631,100.321-223.631,223.631a225.023,225.023,0,0,0,1.409,25.038Zm0,.01-.007,0h.007Zm270.257-50.091H372.708l.021-.008h-.052v50.1H496.354c-12.179,83.855-84.536,148.477-171.712,148.477-70.4,0-131.122-42.144-158.307-102.521L120.07,415.976c34.766,78.462,113.375,133.34,204.571,133.34,123.31,0,223.631-100.32,223.631-223.631A225.119,225.119,0,0,0,546.862,300.643Z" transform="translate(-101.011 -102.055)" opacity="0.3" fill="url(#a)"/></svg>