<svg xmlns="http://www.w3.org/2000/svg" xmlns:xlink="http://www.w3.org/1999/xlink" width="178.856" height="65.918" viewBox="0 0 178.856 65.918"><defs><filter id="a" x="0" y="0" width="65.277" height="65.918" filterUnits="userSpaceOnUse"><feOffset dy="3" input="SourceAlpha"/><feGaussianBlur stdDeviation="3" result="b"/><feFlood flood-opacity="0.161"/><feComposite operator="in" in2="b"/><feComposite in="SourceGraphic"/></filter></defs><g transform="translate(-46.534 -19.333)"><g transform="translate(55.534 25.333)"><g transform="matrix(1, 0, 0, 1, -9, -6)" filter="url(#a)"><path d="M652.654,479.833H641.3V460.454h19.379v11.672l-1.773-.056c-.05,0-.1,0-.15,0a6.112,6.112,0,0,0-6.105,6.105Zm-8.028-3.323h4.851a9.452,9.452,0,0,1,7.882-7.663v-5.07H644.626Zm14.133-3.049a4.711,4.711,0,1,0,4.711,4.711A4.711,4.711,0,0,0,658.759,473.461Zm1.923-16.069H641.3V438.013h11.351v1.662a6.112,6.112,0,0,0,6.105,6.105c.053,0,.106,0,.158,0l1.765-.061Zm-16.056-3.323h12.733V449a9.452,9.452,0,0,1-7.882-7.663h-4.851Zm18.844-14.395a4.711,4.711,0,1,0-4.711,4.711A4.71,4.71,0,0,0,663.47,439.674Zm-25.11,17.718H618.981V445.715l1.765.061c.053,0,.105,0,.158,0a6.112,6.112,0,0,0,6.105-6.105v-1.662H638.36ZM622.3,454.069h12.733V441.336h-4.851A9.451,9.451,0,0,1,622.3,449Zm-1.4-9.684a4.711,4.711,0,1,0-4.711-4.711A4.711,4.711,0,0,0,620.9,444.385Zm17.457,35.448H627.009v-1.662a6.112,6.112,0,0,0-6.105-6.105c-.05,0-.1,0-.15,0l-1.773.056V460.454H638.36Zm-8.175-3.323h4.851V463.777H622.3v5.07A9.451,9.451,0,0,1,630.186,476.51Zm-13.993,1.662a4.711,4.711,0,1,0,4.711-4.711A4.711,4.711,0,0,0,616.193,478.171Z" transform="translate(-607.19 -428.96)" fill="#fff"/></g></g><path d="M680.932,230.835c.417.146.748.258.993.34s.589.217,1.034.408a8.393,8.393,0,0,1,1.1.558,8.7,8.7,0,0,1,.993.749,5.132,5.132,0,0,1,.911.993,6.335,6.335,0,0,1,1.007,2.857,5.93,5.93,0,0,1-1.5,4.735,7.876,7.876,0,0,1-.653.626,6.85,6.85,0,0,1-4,1.741q-.353.027-.734.027a6.978,6.978,0,0,1-4.326-1.441,1.453,1.453,0,0,1-.2-.177.87.87,0,0,0-.177-.149,7.031,7.031,0,0,1-1.456-1.837,5.971,5.971,0,0,1-.694-2.191l3.456-.327a2.932,2.932,0,0,0,1.252,2.15,3.339,3.339,0,0,0,2.531.708,3.376,3.376,0,0,0,2.313-1.17,3.009,3.009,0,0,0,.762-2.368,2.713,2.713,0,0,0-.993-1.931,9.486,9.486,0,0,0-2.735-1.225,14,14,0,0,1-1.632-.6,6.16,6.16,0,0,1-3.02-2.708,4.362,4.362,0,0,1-.136-3.605,4.915,4.915,0,0,1,2.1-2.5,5.879,5.879,0,0,1,4.6-.68,5.193,5.193,0,0,1,1.6.68,5.993,5.993,0,0,1,1.769,1.742,4.529,4.529,0,0,1,.735,2.476l-3.456.054a1.561,1.561,0,0,0-.163-.708,1.794,1.794,0,0,0-.368-.517,3.128,3.128,0,0,0-.435-.341,1.816,1.816,0,0,0-.354-.19,1.443,1.443,0,0,1-.177-.068,2.667,2.667,0,0,0-1.551.081,1.63,1.63,0,0,0-1.034,1.008,3.218,3.218,0,0,0-.109.462,1.679,1.679,0,0,0,.041.531,1.351,1.351,0,0,0,.449.694,4.705,4.705,0,0,0,1.089.707Q680.007,230.535,680.932,230.835ZM701.2,226.4a5.618,5.618,0,0,1,1.061,4.19,5.429,5.429,0,0,1-2.027,3.646,6.144,6.144,0,0,1-4.014,1.442H693.2v7.646h-3.455V224.549h7.51a5.309,5.309,0,0,1,2.217.476A4.449,4.449,0,0,1,701.2,226.4Zm-4.708,5.8a2.368,2.368,0,0,0,0-4.735H693.2V232.2Zm14.64-7.674.244.517,8.354,18.286h-3.809l-1.143-2.476H707.3l-1.17,2.476h-3.809l8.571-18.286Zm-2.259,12.953h4.381l-2.15-4.735Zm21.333-10.014a6.476,6.476,0,1,0,4.055,11.51l2.177,2.693a8.668,8.668,0,0,1-1.428.966,9.43,9.43,0,0,1-1.619.694,9.715,9.715,0,0,1-3.184.544,9.551,9.551,0,0,1-3.183-.544,9.74,9.74,0,0,1-4.871-3.579,9.913,9.913,0,0,1-.013-11.591,9.852,9.852,0,0,1,4.8-3.605,10.118,10.118,0,0,1,3.264-.544,10.23,10.23,0,0,1,3.184.544,9.691,9.691,0,0,1,3.782,2.313l-2.422,2.476A6.191,6.191,0,0,0,730.209,227.46Zm9.687,15.864V224.549h10.857v3.293h-7.4v5.633h4.272v3.265h-4.272v3.293h7.4v3.293Zm23.945-7.809H753.474v-3.455h10.367Zm3.251-7.265a1.8,1.8,0,0,1-.53-1.306,1.811,1.811,0,0,1,1.823-1.824,1.787,1.787,0,0,1,.912.245,1.814,1.814,0,0,1,.667.667,1.853,1.853,0,0,1-.286,2.218,1.807,1.807,0,0,1-2.585,0Zm-.449,14.884V230.508h3.483v12.625Zm6.939-18.585H787l-8.653,15.864h8v2.911H772.93l8.653-15.864h-8Z" transform="translate(-561.607 -184.453)" fill="#fff"/></g></svg>