<svg id="spiz-wallet-logo" xmlns="http://www.w3.org/2000/svg" xmlns:xlink="http://www.w3.org/1999/xlink" width="212" height="212" viewBox="0 0 212 212">
  <defs>
    <clipPath id="clip-path">
      <rect id="Rectangle_2209" data-name="Rectangle 2209" width="212" height="212" fill="#fff" stroke="#707070" stroke-width="1" opacity="0.5"/>
    </clipPath>
  </defs>
  <g id="Mask_Group_144" data-name="Mask Group 144" clip-path="url(#clip-path)">
    <g id="Group_1863" data-name="Group 1863" transform="translate(15.059 86.968)">
      <g id="Group_1860" data-name="Group 1860" transform="translate(0 0.468)">
        <rect id="Rectangle_2213" data-name="Rectangle 2213" width="14.629" height="43.94" transform="translate(41.373 41.414) rotate(-135)" fill="#20417a" opacity="0.75"/>
        <rect id="Rectangle_2214" data-name="Rectangle 2214" width="14.629" height="29.226" transform="translate(31.011 31.07) rotate(135)" fill="#854fbf" opacity="0.75"/>
        <rect id="Rectangle_2215" data-name="Rectangle 2215" width="14.629" height="43.94" transform="translate(20.666 41.414) rotate(-135)" fill="#854fbf" opacity="0.75"/>
        <rect id="Rectangle_2216" data-name="Rectangle 2216" width="14.629" height="29.226" transform="translate(51.713 31.077) rotate(135)" fill="#20417a" opacity="0.75"/>
      </g>
      <g id="Group_1861" data-name="Group 1861" transform="translate(79.924 25.151)">
        <path id="Path_6311" data-name="Path 6311" d="M790.921,591.55l4.448-9.956h3.542l-7.886,18.644-3.439-8.146-3.232,8.146L776,581.62l.026-.026h3.543l4.706,9.956,1.5-2.534-3.129-7.4.051-.026h3.517Z" transform="translate(-776.001 -581.569)"/>
        <path id="Path_6312" data-name="Path 6312" d="M823.864,581.546l.233.491,7.939,17.377h-3.62l-1.086-2.353h-7.111l-1.112,2.353h-3.62l8.146-17.377Zm-2.146,12.309h4.164l-2.043-4.5Z" transform="translate(-794.644 -581.546)"/>
        <path id="Path_6313" data-name="Path 6313" d="M855.021,581.594V596.67h7.033v2.766H851.737V581.594Z" transform="translate(-811.761 -581.569)"/>
        <path id="Path_6314" data-name="Path 6314" d="M879.467,581.594V596.67H886.5v2.766H876.183V581.594Z" transform="translate(-823.303 -581.569)"/>
        <path id="Path_6315" data-name="Path 6315" d="M900.628,599.436V581.594h10.318v3.129h-7.033v5.353h4.06v3.1h-4.06v3.128h7.033v3.129Z" transform="translate(-834.846 -581.569)"/>
        <path id="Path_6316" data-name="Path 6316" d="M925.073,584.361v-2.767h10.4v2.767h-3.543v15.075h-3.31V584.361Z" transform="translate(-846.388 -581.569)"/>
      </g>
      <g id="Group_1862" data-name="Group 1862" transform="translate(79.924 0)">
        <path id="Path_6317" data-name="Path 6317" d="M778.2,552.134a5.9,5.9,0,0,1-1.5-1.8,6.035,6.035,0,0,1-.7-2.263l2.017-.207a4,4,0,0,0,7.072,2.107,3.806,3.806,0,0,0,.866-2.934,4.1,4.1,0,0,0-.388-1.474,2.846,2.846,0,0,0-.905-1.048,7.431,7.431,0,0,0-1.176-.7,13.453,13.453,0,0,0-1.565-.582,15.389,15.389,0,0,1-1.5-.594,5.584,5.584,0,0,1-2.6-2.469,4.485,4.485,0,0,1,.982-4.978,4.677,4.677,0,0,1,1.8-1.06,4.968,4.968,0,0,1,2.792-.077l.259.077a5.2,5.2,0,0,1,2.185,1.552,4.2,4.2,0,0,1,1.021,2.793l-2.016.051a2.1,2.1,0,0,0-.065-.53,3.153,3.153,0,0,0-.155-.452,2.13,2.13,0,0,0-.22-.387q-.13-.181-.259-.337a1.725,1.725,0,0,0-.285-.271c-.1-.078-.2-.146-.3-.207s-.185-.116-.271-.168a.972.972,0,0,0-.22-.1c-.06-.017-.116-.034-.168-.052a3.087,3.087,0,0,0-1.991.143,2.217,2.217,0,0,0-1.294,1.409q-.7,2.017,1.733,3.258a11.4,11.4,0,0,0,1.241.466q.595.207.918.323t.931.4a6.963,6.963,0,0,1,.982.543,10.228,10.228,0,0,1,.879.7,4.151,4.151,0,0,1,.8.918,6.332,6.332,0,0,1,.867,2.651,5.854,5.854,0,0,1-1.294,4.422,5.565,5.565,0,0,1-1.138,1.035,5.848,5.848,0,0,1-2.922,1.137,3.887,3.887,0,0,1-.647.052,5.811,5.811,0,0,1-3.542-1.19.853.853,0,0,0-.1-.078A1.24,1.24,0,0,0,778.2,552.134Z" transform="translate(-776.001 -533.896)" fill="#333"/>
        <path id="Path_6318" data-name="Path 6318" d="M805.7,544.553v8.067h-2.017V534.6h5.87a4.988,4.988,0,0,1,4.964,4.965,4.932,4.932,0,0,1-2.469,4.318,4.858,4.858,0,0,1-2.5.673Zm5.934-2.884a2.96,2.96,0,0,0-2.081-5.055H805.7v5.921h3.853A2.837,2.837,0,0,0,811.63,541.669Z" transform="translate(-789.07 -534.227)" fill="#333"/>
        <path id="Path_6319" data-name="Path 6319" d="M828.214,548.29,826.4,552.5h-2.2l7.783-18.153h.026l7.577,18.153h-2.2l-1.758-4.215Zm3.775-8.74-2.9,6.723h5.689Z" transform="translate(-798.762 -534.112)" fill="#333"/>
        <path id="Path_6320" data-name="Path 6320" d="M863.282,552.491a8.724,8.724,0,0,1-4.486-1.2,8.953,8.953,0,0,1-3.258-3.258,8.971,8.971,0,0,1,0-8.973A8.943,8.943,0,0,1,858.8,535.8a8.981,8.981,0,0,1,10.769,1.357l-1.422,1.448a6.914,6.914,0,1,0-.517,10.317l1.267,1.577A8.662,8.662,0,0,1,863.282,552.491Z" transform="translate(-812.988 -534.227)" fill="#333"/>
        <path id="Path_6321" data-name="Path 6321" d="M888.088,552.491V534.6h9.826v2.017H890.1v7.11h4.784v2.017H890.1v4.706h7.809v2.043Z" transform="translate(-828.925 -534.227)" fill="#333"/>
        <path id="Path_6322" data-name="Path 6322" d="M921.636,551.752H911.6v-2.017h10.033Z" transform="translate(-840.027 -541.375)" fill="#333"/>
        <path id="Path_6323" data-name="Path 6323" d="M937.759,538.218a1.343,1.343,0,0,1,0,1.888,1.31,1.31,0,0,1-1.862,0,1.342,1.342,0,0,1,0-1.888,1.312,1.312,0,0,1,1.862,0Zm.077,3.724v12.205h-2.017V541.942Z" transform="translate(-851.315 -535.754)" fill="#333"/>
        <path id="Path_6324" data-name="Path 6324" d="M957.842,552.62H945.4l9.051-16.006h-8.947V534.6h12.437L948.9,550.6h8.947Z" transform="translate(-855.987 -534.227)" fill="#333"/>
      </g>
    </g>
  </g>
</svg>
