<svg xmlns="http://www.w3.org/2000/svg" xmlns:xlink="http://www.w3.org/1999/xlink" width="60" height="60" viewBox="0 0 60 60"><defs><filter id="a" x="0" y="0" width="60" height="60" filterUnits="userSpaceOnUse"><feOffset dy="3" input="SourceAlpha"/><feGaussianBlur stdDeviation="3" result="b"/><feFlood flood-opacity="0.161"/><feComposite operator="in" in2="b"/><feComposite in="SourceGraphic"/></filter><filter id="c" x="8.482" y="12.638" width="41.158" height="37.415" filterUnits="userSpaceOnUse"><feOffset dy="3" input="SourceAlpha"/><feGaussianBlur stdDeviation="3" result="d"/><feFlood flood-opacity="0.161"/><feComposite operator="in" in2="d"/><feComposite in="SourceGraphic"/></filter></defs><g transform="translate(-791 -891)"><g transform="matrix(1, 0, 0, 1, 791, 891)" filter="url(#a)"><circle cx="21" cy="21" r="21" transform="translate(9 6)" fill="#1ab4ff"/></g><g transform="matrix(1, 0, 0, 1, 791, 891)" filter="url(#c)"><path d="M5.962,15.24,26.5,7.321c.953-.344,1.786.233,1.477,1.674l0,0-3.5,16.474c-.259,1.168-.953,1.452-1.924.9l-5.325-3.925-2.569,2.474a1.343,1.343,0,0,1-1.074.524l.378-5.419,9.869-8.916c.43-.378-.1-.591-.662-.215l-12.2,7.679L5.72,16.931c-1.141-.362-1.166-1.141.241-1.692Z" transform="translate(12.6 11.41)" fill="#fff"/></g></g></svg>