<svg xmlns="http://www.w3.org/2000/svg" xmlns:xlink="http://www.w3.org/1999/xlink" width="119" height="120" viewBox="0 0 119 120"><defs><filter id="a" x="0" y="0" width="119" height="120" filterUnits="userSpaceOnUse"><feOffset dy="15" input="SourceAlpha"/><feGaussianBlur stdDeviation="15" result="b"/><feFlood flood-color="#7c96a5" flood-opacity="0.149"/><feComposite operator="in" in2="b"/><feComposite in="SourceGraphic"/></filter></defs><g transform="translate(44.682 30)"><g transform="matrix(1, 0, 0, 1, -44.68, -30)" filter="url(#a)"><path d="M14.5,0A14.756,14.756,0,0,1,29,15,14.756,14.756,0,0,1,14.5,30,14.756,14.756,0,0,1,0,15,14.756,14.756,0,0,1,14.5,0Z" transform="translate(45 30)" fill="#fff"/></g><path d="M6.264,34.912a3.249,3.249,0,1,0,3.249,3.249A3.244,3.244,0,0,0,6.264,34.912Zm0,5.362a2.112,2.112,0,1,1,2.112-2.112,2.116,2.116,0,0,1-2.112,2.112Zm4.14-5.494a.758.758,0,1,1-.758-.758A.756.756,0,0,1,10.4,34.779Zm2.152.769a3.75,3.75,0,0,0-1.024-2.655A3.775,3.775,0,0,0,8.877,31.87c-1.046-.059-4.182-.059-5.229,0A3.77,3.77,0,0,0,.993,32.89,3.763,3.763,0,0,0-.03,35.546c-.059,1.046-.059,4.182,0,5.229A3.75,3.75,0,0,0,.993,43.43a3.78,3.78,0,0,0,2.655,1.024c1.046.059,4.182.059,5.229,0a3.75,3.75,0,0,0,2.655-1.024,3.775,3.775,0,0,0,1.024-2.655C12.616,39.728,12.616,36.595,12.556,35.549ZM11.2,41.9A2.139,2.139,0,0,1,10,43.1a13.966,13.966,0,0,1-3.736.255A14.075,14.075,0,0,1,2.529,43.1a2.139,2.139,0,0,1-1.2-1.2,13.967,13.967,0,0,1-.255-3.736,14.075,14.075,0,0,1,.255-3.736,2.139,2.139,0,0,1,1.2-1.2,13.966,13.966,0,0,1,3.736-.255A14.075,14.075,0,0,1,10,33.221a2.139,2.139,0,0,1,1.2,1.2,13.966,13.966,0,0,1,.255,3.736A13.958,13.958,0,0,1,11.2,41.9Z" transform="translate(8.675 -23.302)" fill="#854fbf"/></g></svg>