<svg xmlns="http://www.w3.org/2000/svg" xmlns:xlink="http://www.w3.org/1999/xlink" width="120" height="120" viewBox="0 0 120 120"><defs><filter id="a" x="0" y="0" width="120" height="120" filterUnits="userSpaceOnUse"><feOffset dy="15" input="SourceAlpha"/><feGaussianBlur stdDeviation="15" result="b"/><feFlood flood-color="#7c96a5" flood-opacity="0.149"/><feComposite operator="in" in2="b"/><feComposite in="SourceGraphic"/></filter></defs><g transform="translate(45.48 30)"><g transform="matrix(1, 0, 0, 1, -45.48, -30)" filter="url(#a)"><circle cx="15" cy="15" r="15" transform="translate(45 30)" fill="#fff"/></g><path d="M2.837,12.685H.209V4.223H2.837ZM1.522,3.068A1.529,1.529,0,1,1,3.044,1.532,1.535,1.535,0,0,1,1.522,3.068Zm11.151,9.617H10.051V8.566c0-.982-.02-2.241-1.366-2.241-1.366,0-1.576,1.067-1.576,2.17v4.19H4.483V4.223H7V5.377h.037A2.761,2.761,0,0,1,9.527,4.011c2.66,0,3.149,1.751,3.149,4.026v4.649Z" transform="translate(8.474 8.513)" fill="#854fbf"/></g></svg>