<svg xmlns="http://www.w3.org/2000/svg" xmlns:xlink="http://www.w3.org/1999/xlink" width="120" height="120" viewBox="0 0 120 120"><defs><filter id="a" x="0" y="0" width="120" height="120" filterUnits="userSpaceOnUse"><feOffset dy="15" input="SourceAlpha"/><feGaussianBlur stdDeviation="15" result="b"/><feFlood flood-color="#7c96a5" flood-opacity="0.149"/><feComposite operator="in" in2="b"/><feComposite in="SourceGraphic"/></filter></defs><g transform="translate(45.278 30)"><g transform="matrix(1, 0, 0, 1, -45.28, -30)" filter="url(#a)"><circle cx="15" cy="15" r="15" transform="translate(45 30)" fill="#fff"/></g><path d="M15.7,66.052a.5.5,0,0,0-.16-.414L14.36,64.212V64h3.674l2.841,6.229L23.372,64h3.5v.212l-1.012.97a.3.3,0,0,0-.113.283v7.128a.3.3,0,0,0,.113.283l.988.97v.212H21.881v-.212l1.025-.993c.1-.1.1-.131.1-.283v-5.76l-2.849,7.23h-.385l-3.312-7.23v4.845a.66.66,0,0,0,.183.556l1.331,1.614v.212H14.2v-.21l1.331-1.617a.638.638,0,0,0,.17-.556Z" transform="translate(-6.106 -54.209)" fill="#854fbf"/></g></svg>