<svg xmlns="http://www.w3.org/2000/svg" width="44.02" height="44.617" viewBox="0 0 44.02 44.617"><path d="M650.142,476.742H639.573V458.7h18.044v10.868l-1.651-.052c-.046,0-.093,0-.14,0a5.691,5.691,0,0,0-5.685,5.685Zm-7.475-3.094h4.517a8.8,8.8,0,0,1,7.339-7.135v-4.721H642.667Zm13.159-2.839a4.386,4.386,0,1,0,4.386,4.386A4.386,4.386,0,0,0,655.827,470.808Zm1.79-14.962H639.573V437.8h10.569v1.547a5.691,5.691,0,0,0,5.685,5.685c.049,0,.1,0,.147,0l1.643-.057Zm-14.95-3.094h11.856v-4.72a8.8,8.8,0,0,1-7.339-7.135h-4.517Zm17.546-13.4a4.386,4.386,0,1,0-4.386,4.386A4.386,4.386,0,0,0,660.213,439.35Zm-23.38,16.5H618.789V444.974l1.643.057c.049,0,.1,0,.147,0a5.691,5.691,0,0,0,5.685-5.685V437.8h10.569Zm-14.95-3.094h11.855V440.9h-4.517a8.8,8.8,0,0,1-7.338,7.135Zm-1.3-9.017a4.386,4.386,0,1,0-4.386-4.386A4.387,4.387,0,0,0,620.579,443.736Zm16.254,33.006H626.264v-1.547a5.691,5.691,0,0,0-5.685-5.685c-.047,0-.093,0-.139,0l-1.651.052V458.7h18.044Zm-7.612-3.094h4.517V461.792H621.883v4.721A8.8,8.8,0,0,1,629.222,473.648Zm-13.029,1.547a4.386,4.386,0,1,0,4.386-4.386A4.386,4.386,0,0,0,616.193,475.195Z" transform="translate(-616.193 -434.964)" fill="#fff"/></svg>