<svg xmlns="http://www.w3.org/2000/svg" xmlns:xlink="http://www.w3.org/1999/xlink" width="119" height="120" viewBox="0 0 119 120"><defs><filter id="a" x="0" y="0" width="119" height="120" filterUnits="userSpaceOnUse"><feOffset dy="15" input="SourceAlpha"/><feGaussianBlur stdDeviation="15" result="b"/><feFlood flood-color="#7c96a5" flood-opacity="0.149"/><feComposite operator="in" in2="b"/><feComposite in="SourceGraphic"/></filter></defs><g transform="translate(44.591 30)"><g transform="matrix(1, 0, 0, 1, -44.59, -30)" filter="url(#a)"><ellipse cx="14.5" cy="15" rx="14.5" ry="15" transform="translate(45 30)" fill="#fff"/></g><path d="M5.51,11.884l11.939-4.6c.554-.2,1.038.135.859.973h0L16.276,17.83c-.151.679-.554.844-1.119.524l-3.1-2.281-1.493,1.438a.781.781,0,0,1-.624.3l.22-3.15L15.9,9.482c.25-.22-.056-.344-.385-.125l-7.09,4.464L5.37,12.867c-.664-.211-.678-.663.14-.983Z" transform="translate(2.056 2.775)" fill="#854fbf"/></g></svg>