<svg xmlns="http://www.w3.org/2000/svg" xmlns:xlink="http://www.w3.org/1999/xlink" width="120" height="120" viewBox="0 0 120 120"><defs><filter id="a" x="0" y="0" width="120" height="120" filterUnits="userSpaceOnUse"><feOffset dy="15" input="SourceAlpha"/><feGaussianBlur stdDeviation="15" result="b"/><feFlood flood-color="#7c96a5" flood-opacity="0.149"/><feComposite operator="in" in2="b"/><feComposite in="SourceGraphic"/></filter></defs><g transform="translate(44.995 30)"><g transform="matrix(1, 0, 0, 1, -44.99, -30)" filter="url(#a)"><circle cx="15" cy="15" r="15" transform="translate(45 30)" fill="#fff"/></g><path d="M11.373,50.648c.008.113.008.225.008.338a7.341,7.341,0,0,1-7.392,7.392A7.341,7.341,0,0,1,0,57.211a5.375,5.375,0,0,0,.627.032,5.2,5.2,0,0,0,3.225-1.11,2.6,2.6,0,0,1-2.429-1.8,3.276,3.276,0,0,0,.491.04,2.748,2.748,0,0,0,.684-.088,2.6,2.6,0,0,1-2.083-2.55V51.7a2.616,2.616,0,0,0,1.174.33,2.6,2.6,0,0,1-.8-3.475,7.384,7.384,0,0,0,5.357,2.719,2.933,2.933,0,0,1-.064-.6,2.6,2.6,0,0,1,4.5-1.778,5.115,5.115,0,0,0,1.649-.627,2.591,2.591,0,0,1-1.142,1.432,5.208,5.208,0,0,0,1.5-.4A5.584,5.584,0,0,1,11.373,50.648Z" transform="translate(8.572 -38.291)" fill="#854fbf"/></g></svg>