<svg xmlns="http://www.w3.org/2000/svg" xmlns:xlink="http://www.w3.org/1999/xlink" width="120" height="120" viewBox="0 0 120 120"><defs><filter id="a" x="0" y="0" width="120" height="120" filterUnits="userSpaceOnUse"><feOffset dy="15" input="SourceAlpha"/><feGaussianBlur stdDeviation="15" result="b"/><feFlood flood-color="#7c96a5" flood-opacity="0.149"/><feComposite operator="in" in2="b"/><feComposite in="SourceGraphic"/></filter></defs><g transform="translate(44.793 30)"><g transform="matrix(1, 0, 0, 1, -44.79, -30)" filter="url(#a)"><circle cx="15" cy="15" r="15" transform="translate(45 30)" fill="#fff"/></g><path d="M27.344,65.395a1.593,1.593,0,0,0-1.121-1.128A37.64,37.64,0,0,0,21.271,64a37.64,37.64,0,0,0-4.952.267A1.593,1.593,0,0,0,15.2,65.395a17.933,17.933,0,0,0,0,6.142,1.569,1.569,0,0,0,1.121,1.11,37.639,37.639,0,0,0,4.952.267,37.639,37.639,0,0,0,4.952-.267,1.569,1.569,0,0,0,1.121-1.11,17.933,17.933,0,0,0,0-6.142ZM19.974,70.35V66.581l3.313,1.885Z" transform="translate(-6.487 -53.449)" fill="#854fbf"/></g></svg>